<svg width="1920" height="1000" viewBox="0 0 1920 1000" fill="none" xmlns="http://www.w3.org/2000/svg">
<g clip-path="url(#clip0_121_1205)">
<mask id="mask0_121_1205" style="mask-type:luminance" maskUnits="userSpaceOnUse" x="0" y="0" width="1920" height="1000">
<path d="M1920 0H0V1000H1920V0Z" fill="white"/>
</mask>
<g mask="url(#mask0_121_1205)">
<path d="M1920 0H0V1000H1920V0Z" fill="black"/>
<path d="M414.17 223.83L548.41 301.33M414.17 223.83L279.94 301.33V456.33L414.17 533.83L548.41 456.33V301.33M414.17 223.83V68.8301L548.41 -8.66992L682.65 68.8301V223.83L548.41 301.33M1488.08 223.83L1622.31 301.33M1488.08 223.83L1353.84 301.33V456.33M1488.08 223.83V68.8301L1622.31 -8.66992L1756.55 68.8301V223.83L1622.31 301.33M1622.31 301.33V456.33L1488.08 533.83M1488.08 533.83L1353.84 456.33M1488.08 533.83V688.83L1353.84 766.33L1219.6 688.83V533.83L1353.84 456.33M11.46 -8.66992L145.7 68.8301V223.83L11.46 301.33L-122.78 223.83V68.8301L11.46 -8.66992ZM1756.55 688.83L1890.79 766.33V921.33L1756.55 998.83L1622.31 921.33V766.33L1756.55 688.83Z" stroke="#70288F" stroke-width="2"/>
<path d="M124.81 117.2V37.2002L55.53 -2.7998L-13.75 37.2002V117.2L55.53 157.2M124.81 117.2L55.53 157.2M124.81 117.2L194.1 157.2M55.53 157.2V237.2L124.81 277.2L194.1 237.2M194.1 157.2V237.2M194.1 157.2L263.38 117.2L332.67 157.2V237.2M194.1 237.2L263.38 277.2M194.1 877.2L124.81 837.2L55.53 877.2V957.2L124.81 997.2L194.1 957.2M194.1 877.2V957.2M194.1 877.2L263.38 837.2L332.67 877.2V957.2L263.38 997.2L194.1 957.2M332.67 237.2L263.38 277.2M332.67 237.2L401.95 277.2V357.2M263.38 277.2V357.2L332.67 397.2M401.95 357.2L332.67 397.2M401.95 357.2L471.23 397.2M332.67 397.2V477.2L401.95 517.2M471.23 397.2V477.2M471.23 397.2L540.52 357.2L609.8 397.2V477.2L540.52 517.2M471.23 477.2L401.95 517.2M471.23 477.2L540.52 517.2M401.95 517.2V597.2L471.23 637.2M540.52 517.2V597.2M540.52 597.2L471.23 637.2M540.52 597.2L609.8 637.2V717.2L540.52 757.2L471.23 717.2V637.2M540.52 997.2L609.8 957.2V877.2L540.52 837.2L471.23 877.2V957.2M540.52 997.2L471.23 957.2M540.52 997.2V1077.2L471.23 1117.2L401.95 1077.2V997.2L471.23 957.2M886.94 957.2V877.2L817.65 837.2L748.37 877.2V957.2L817.65 997.2M886.94 957.2L817.65 997.2M886.94 957.2L956.22 997.2M817.65 997.2V1077.2L886.94 1117.2L956.22 1077.2M956.22 997.2V1077.2M956.22 997.2L1025.51 957.2L1094.79 997.2V1077.2L1025.51 1117.2L956.22 1077.2M1233.36 597.2V517.2L1164.07 477.2L1094.79 517.2V597.2L1164.07 637.2M1233.36 597.2L1164.07 637.2M1233.36 597.2L1302.64 637.2M1164.07 637.2V717.2L1233.36 757.2L1302.64 717.2M1302.64 637.2V717.2M1302.64 637.2L1371.93 597.2L1441.21 637.2M1302.64 717.2L1371.93 757.2M1441.21 637.2V717.2M1441.21 637.2L1510.49 597.2L1579.78 637.2V717.2L1510.49 757.2M1441.21 717.2L1371.93 757.2M1441.21 717.2L1510.49 757.2M1371.93 757.2V837.2M1371.93 837.2L1441.21 877.2M1371.93 837.2L1302.64 877.2V957.2M1441.21 877.2V957.2L1371.93 997.2M1441.21 877.2L1510.49 837.2V757.2M1371.93 997.2L1302.64 957.2M1371.93 997.2V1077.2L1302.64 1117.2L1233.36 1077.2V997.2L1302.64 957.2M1510.49 117.2V37.2002L1441.21 -2.7998L1371.93 37.2002V117.2L1441.21 157.2M1510.49 117.2L1441.21 157.2M1510.49 117.2L1579.78 157.2V237.2M1441.21 157.2V237.2M1579.78 237.2L1510.49 277.2M1579.78 237.2L1649.06 277.2V357.2L1579.78 397.2L1510.49 357.2M1510.49 277.2L1441.21 237.2M1510.49 277.2V357.2M1441.21 237.2L1371.93 277.2V357.2L1441.21 397.2L1510.49 357.2M1787.63 517.2L1718.35 477.2L1649.06 517.2V597.2L1718.35 637.2M1787.63 517.2V597.2M1787.63 517.2L1856.91 477.2M1787.63 597.2L1718.35 637.2M1787.63 597.2L1856.91 637.2M1718.35 637.2V717.2L1787.63 757.2M1856.91 637.2V717.2M1856.91 637.2L1926.2 597.2V517.2M1856.91 717.2L1787.63 757.2M1856.91 717.2L1926.2 757.2V837.2L1856.91 877.2M1787.63 757.2V837.2M1787.63 837.2L1856.91 877.2M1787.63 837.2L1718.35 877.2V957.2L1787.63 997.2M1856.91 877.2V957.2M1856.91 957.2L1787.63 997.2M1856.91 957.2L1926.2 997.2V1077.2L1856.91 1117.2L1787.63 1077.2V997.2M1926.2 517.2L1995.48 477.2V397.2L1926.2 357.2L1856.91 397.2V477.2M1926.2 517.2L1856.91 477.2M194.1 477.2L263.38 517.2V597.2L194.1 637.2L124.81 597.2V517.2L194.1 477.2ZM609.8 -2.7998L679.09 37.2002V117.2L609.8 157.2L540.52 117.2V37.2002L609.8 -2.7998ZM1025.51 237.2L1094.79 277.2V357.2L1025.51 397.2L956.22 357.2V277.2L1025.51 237.2ZM1233.36 117.2L1302.64 157.2V237.2L1233.36 277.2L1164.07 237.2V157.2L1233.36 117.2ZM1718.35 -2.7998L1787.63 37.2002V117.2L1718.35 157.2L1649.06 117.2V37.2002L1718.35 -2.7998Z" stroke="#4448BB" stroke-width="2"/>
</g>
</g>
<defs>
<clipPath id="clip0_121_1205">
<rect width="1920" height="1000" fill="white"/>
</clipPath>
</defs>
</svg>
